<svg xmlns="http://www.w3.org/2000/svg" version="1.1" xmlns:xlink="http://www.w3.org/1999/xlink" xmlns:svgjs="http://svgjs.dev/svgjs" width="1500" height="1500" viewBox="0 0 1500 1500"><rect width="1500" height="1500" fill="#ffffff"></rect><g transform="matrix(0.6666666666666666,0,0,0.6666666666666666,249.39393939393938,656.2373328321883)"><svg viewBox="0 0 396 74" data-background-color="#ffffff" preserveAspectRatio="xMidYMid meet" height="280" width="1500" xmlns="http://www.w3.org/2000/svg" xmlns:xlink="http://www.w3.org/1999/xlink"><g id="tight-bounds" transform="matrix(1,0,0,1,0.2400000000000091,0.17020019866822622)"><svg viewBox="0 0 395.52 73.65959960266355" height="73.65959960266355" width="395.52"><g><svg viewBox="0 0 508.40464991356464 94.68265308648238" height="73.65959960266355" width="395.52"><g transform="matrix(1,0,0,1,112.88464991356464,13.085663342632515)"><svg viewBox="0 0 395.52 68.51132640121735" height="68.51132640121735" width="395.52"><g id="textblocktransform"><svg viewBox="0 0 395.52 68.51132640121735" height="68.51132640121735" width="395.52" id="textblock"><g><svg viewBox="0 0 395.52 68.51132640121735" height="68.51132640121735" width="395.52"><g transform="matrix(1,0,0,1,0,0)"><svg width="395.52" viewBox="2.15 -33.3 197.13 34.15" height="68.51132640121735" data-palette-color="#31302e"><path d="M2.25 0L2.25-0.5 2.5-0.5Q2.85-0.5 3.15-0.8 3.45-1.1 3.68-1.5 3.9-1.9 4-2.38 4.1-2.85 4.1-3.25L4.1-3.25 4.1-29.85Q4.1-30.2 4-30.65 3.9-31.1 3.68-31.53 3.45-31.95 3.13-32.23 2.8-32.5 2.4-32.5L2.4-32.5 2.15-32.5 2.15-33 10.35-33Q15-33 17.63-30.95 20.25-28.9 20.25-25.5L20.25-25.5Q20.25-24.05 19.75-22.9 19.25-21.75 18.48-20.85 17.7-19.95 16.8-19.33 15.9-18.7 15.1-18.3L15.1-18.3Q17.2-17.9 18.6-16.95 20-16 20.88-14.78 21.75-13.55 22.1-12.15 22.45-10.75 22.45-9.4L22.45-9.4Q22.45-6.8 21.5-5.03 20.55-3.25 18.98-2.13 17.4-1 15.38-0.5 13.35 0 11.2 0L11.2 0 2.25 0ZM19.05-8.55L19.05-9.1Q18.65-12.95 16.45-15.05 14.25-17.15 10.25-17.15L10.25-17.15 7.45-17.15 7.45-1.65 10.35-1.65Q14.4-1.65 16.73-3.48 19.05-5.3 19.05-8.55L19.05-8.55ZM17-24.7L17-25.05Q16.85-27.95 14.98-29.65 13.1-31.35 9.95-31.35L9.95-31.35 7.45-31.35 7.45-18.75 10.05-18.75Q12.15-18.75 13.48-19.3 14.8-19.85 15.6-20.73 16.4-21.6 16.7-22.65 17-23.7 17-24.7L17-24.7ZM40.4-20.4L38.9-17.35Q38.3-18.35 37.65-18.6 37-18.85 36.15-18.85L36.15-18.85Q35.6-18.85 34.97-18.6 34.35-18.35 33.75-17.95 33.15-17.55 32.57-17.07 32-16.6 31.6-16.2L31.6-16.2 31.6-3.2Q31.6-2.8 31.7-2.35 31.8-1.9 32.02-1.48 32.25-1.05 32.52-0.78 32.8-0.5 33.2-0.5L33.2-0.5 33.2 0 26.7 0 26.7-0.5Q27.05-0.5 27.35-0.78 27.65-1.05 27.87-1.48 28.1-1.9 28.2-2.35 28.3-2.8 28.3-3.2L28.3-3.2 28.3-17.15Q28.3-17.85 27.85-18.55 27.4-19.25 26.55-19.45L26.55-19.45 26.55-19.85 31.6-21.35 31.6-18.35Q32.05-18.9 32.55-19.43 33.05-19.95 33.67-20.38 34.3-20.8 35.05-21.08 35.8-21.35 36.8-21.35L36.8-21.35Q37.5-21.35 38.6-21.05 39.7-20.75 40.4-20.4L40.4-20.4ZM61.59 0L56.75 0 56.75-2.55 56.5-2.3Q55.25-1.05 53.62-0.35 52 0.35 49.7 0.35L49.7 0.35Q47.95 0.35 46.7-0.05 45.45-0.45 44.65-1.18 43.84-1.9 43.47-2.85 43.09-3.8 43.09-4.85L43.09-4.85Q43.09-6.55 44.02-7.85 44.95-9.15 46.7-10.15 48.45-11.15 50.97-11.98 53.5-12.8 56.75-13.6L56.75-13.6Q56.65-15.55 55.95-16.75 55.25-17.95 54.3-18.63 53.34-19.3 52.3-19.53 51.25-19.75 50.5-19.75L50.5-19.75Q49.2-19.75 48.22-19.35 47.25-18.95 46.52-18.32 45.8-17.7 45.3-16.98 44.8-16.25 44.5-15.6L44.5-15.6 44.05-15.6 44.05-19.25Q44.45-19.3 44.8-19.5 45.15-19.7 45.65-19.9L45.65-19.9Q46.4-20.2 47.7-20.78 49-21.35 51.34-21.35L51.34-21.35Q54.09-21.35 55.8-20.65 57.5-19.95 58.42-18.8 59.34-17.65 59.65-16.18 59.95-14.7 59.95-13.15L59.95-13.15 59.95-3.25Q59.95-2.25 60.4-1.38 60.84-0.5 61.59-0.5L61.59-0.5 61.59 0ZM56.2-4.15L56.75-4.75 56.75-11.9 56.25-11.8Q55.05-11.5 53.32-11 51.59-10.5 50.05-9.7 48.5-8.9 47.4-7.8 46.3-6.7 46.3-5.25L46.3-5.25Q46.3-3.65 47.59-2.6 48.9-1.55 51-1.55L51-1.55Q52.65-1.55 53.9-2.27 55.15-3 56.2-4.15L56.2-4.15ZM73.59 0L67.09 0 67.09-0.5Q67.49-0.5 67.79-0.8 68.09-1.1 68.29-1.5 68.49-1.9 68.59-2.38 68.69-2.85 68.69-3.25L68.69-3.25 68.69-17.1Q68.69-17.95 68.44-18.73 68.19-19.5 66.99-19.55L66.99-19.55 66.99-20 71.99-21.6 71.99-3.25Q71.99-2.85 72.09-2.38 72.19-1.9 72.39-1.5 72.59-1.1 72.89-0.8 73.19-0.5 73.59-0.5L73.59-0.5 73.59 0ZM67.34-26.4L67.34-26.4Q67.34-27.4 68.02-28.1 68.69-28.8 69.69-28.8L69.69-28.8Q70.69-28.8 71.39-28.1 72.09-27.4 72.09-26.4L72.09-26.4Q72.09-25.4 71.39-24.75 70.69-24.1 69.69-24.1L69.69-24.1Q68.69-24.1 68.02-24.75 67.34-25.4 67.34-26.4ZM99.04-12.9L99.04-3.25Q99.04-2.85 99.14-2.38 99.24-1.9 99.47-1.5 99.69-1.1 99.97-0.8 100.24-0.5 100.64-0.5L100.64-0.5 100.64 0 94.19 0 94.19-0.5Q94.54-0.5 94.84-0.8 95.14-1.1 95.37-1.5 95.59-1.9 95.69-2.38 95.79-2.85 95.79-3.25L95.79-3.25 95.79-12.55Q95.79-14.35 95.29-15.7 94.79-17.05 93.94-17.95 93.09-18.85 92.02-19.28 90.94-19.7 89.84-19.7L89.84-19.7Q88.74-19.7 87.67-19.25 86.59-18.8 85.77-18.07 84.94-17.35 84.42-16.38 83.89-15.4 83.89-14.35L83.89-14.35 83.89-3.25Q83.89-2.85 83.99-2.38 84.09-1.9 84.32-1.5 84.54-1.1 84.82-0.8 85.09-0.5 85.49-0.5L85.49-0.5 85.49 0 78.99 0 78.99-0.5Q79.34-0.5 79.64-0.8 79.94-1.1 80.17-1.5 80.39-1.9 80.49-2.38 80.59-2.85 80.59-3.25L80.59-3.25 80.59-17.05Q80.59-17.9 80.34-18.68 80.09-19.45 78.89-19.5L78.89-19.5 78.89-19.95 83.89-21.55 83.89-18.8Q84.24-19.2 84.79-19.68 85.34-20.15 86.12-20.58 86.89-21 87.92-21.28 88.94-21.55 90.34-21.55L90.34-21.55Q92.69-21.55 94.34-20.75 95.99-19.95 97.04-18.68 98.09-17.4 98.57-15.88 99.04-14.35 99.04-12.9L99.04-12.9ZM135.29-33L135.29-32.5Q134.29-32.5 133.59-31.65 132.89-30.8 132.64-29.8L132.64-29.8 123.54 0.2 115.74-24.4 107.94 0.25 98.79-29.75Q98.54-30.7 97.91-31.6 97.29-32.5 96.49-32.5L96.49-32.5 96.49-33 103.59-33 103.59-32.5Q102.94-32.5 102.51-31.98 102.09-31.45 102.09-30.65L102.09-30.65Q102.09-30.4 102.19-30L102.19-30 108.69-8.8 116.64-33.3 124.29-8.85 130.89-30Q130.89-30.1 130.96-30.43 131.04-30.75 131.04-30.95L131.04-30.95Q131.04-31.65 130.64-32.08 130.24-32.5 129.84-32.5L129.84-32.5 129.84-33 135.29-33ZM151.09 0L146.24 0 146.24-2.55 145.99-2.3Q144.74-1.05 143.11-0.35 141.49 0.35 139.19 0.35L139.19 0.35Q137.44 0.35 136.19-0.05 134.94-0.45 134.14-1.18 133.34-1.9 132.96-2.85 132.59-3.8 132.59-4.85L132.59-4.85Q132.59-6.55 133.51-7.85 134.44-9.15 136.19-10.15 137.94-11.15 140.46-11.98 142.99-12.8 146.24-13.6L146.24-13.6Q146.14-15.55 145.44-16.75 144.74-17.95 143.79-18.63 142.84-19.3 141.79-19.53 140.74-19.75 139.99-19.75L139.99-19.75Q138.69-19.75 137.71-19.35 136.74-18.95 136.01-18.32 135.29-17.7 134.79-16.98 134.29-16.25 133.99-15.6L133.99-15.6 133.54-15.6 133.54-19.25Q133.94-19.3 134.29-19.5 134.64-19.7 135.14-19.9L135.14-19.9Q135.89-20.2 137.19-20.78 138.49-21.35 140.84-21.35L140.84-21.35Q143.59-21.35 145.29-20.65 146.99-19.95 147.91-18.8 148.84-17.65 149.14-16.18 149.44-14.7 149.44-13.15L149.44-13.15 149.44-3.25Q149.44-2.25 149.89-1.38 150.34-0.5 151.09-0.5L151.09-0.5 151.09 0ZM145.69-4.15L146.24-4.75 146.24-11.9 145.74-11.8Q144.54-11.5 142.81-11 141.09-10.5 139.54-9.7 137.99-8.9 136.89-7.8 135.79-6.7 135.79-5.25L135.79-5.25Q135.79-3.65 137.09-2.6 138.39-1.55 140.49-1.55L140.49-1.55Q142.14-1.55 143.39-2.27 144.64-3 145.69-4.15L145.69-4.15ZM171.18-21L176.08-21 176.08-20.5Q175.73-20.5 175.38-20.25 175.03-20 174.71-19.6 174.38-19.2 174.11-18.73 173.83-18.25 173.63-17.85L173.63-17.85 165.03 0.85 156.48-18.05Q156.13-18.85 155.58-19.68 155.03-20.5 154.18-20.5L154.18-20.5 154.18-21 161.03-21 161.03-20.5Q160.73-20.5 160.26-20.2 159.78-19.9 159.78-19.35L159.78-19.35Q159.78-19.1 160.18-18.2L160.18-18.2 165.93-5.25 172.13-18.75Q172.33-19.25 172.33-19.5L172.33-19.5Q172.33-19.95 171.91-20.23 171.48-20.5 171.18-20.5L171.18-20.5 171.18-21ZM199.28-10.1L181.93-10.1Q182.13-8.35 182.78-6.78 183.43-5.2 184.51-4 185.58-2.8 187.13-2.08 188.68-1.35 190.73-1.35L190.73-1.35Q191.83-1.35 193.06-1.68 194.28-2 195.33-2.6 196.38-3.2 197.21-4.08 198.03-4.95 198.33-6.05L198.33-6.05 198.78-6.05 198.78-2.3Q198.48-2.3 198.11-2.1 197.73-1.9 197.23-1.6L197.23-1.6Q196.23-1 194.53-0.33 192.83 0.35 190.03 0.35L190.03 0.35Q187.78 0.35 185.76-0.3 183.73-0.95 182.18-2.3 180.63-3.65 179.71-5.75 178.78-7.85 178.78-10.75L178.78-10.75Q178.78-12.6 179.41-14.5 180.03-16.4 181.31-17.93 182.58-19.45 184.58-20.4 186.58-21.35 189.38-21.35L189.38-21.35Q191.88-21.35 193.76-20.5 195.63-19.65 196.86-18.15 198.08-16.65 198.68-14.6 199.28-12.55 199.28-10.1L199.28-10.1ZM189.18-19.7L189.18-19.7Q187.43-19.7 186.16-19 184.88-18.3 183.98-17.2 183.08-16.1 182.58-14.7 182.08-13.3 181.93-11.9L181.93-11.9 196.18-11.9Q196.13-13.35 195.66-14.75 195.18-16.15 194.33-17.25 193.48-18.35 192.18-19.03 190.88-19.7 189.18-19.7Z" opacity="1" transform="matrix(1,0,0,1,0,0)" fill="#000000" class="wordmark-text-0" data-fill-palette-color="primary" id="text-0"></path></svg></g></svg></g></svg></g></svg></g><g><svg viewBox="0 0 96.71077002207086 94.68265308648238" height="94.68265308648238" width="96.71077002207086"><g><svg xmlns="http://www.w3.org/2000/svg" xmlns:xlink="http://www.w3.org/1999/xlink" version="1.1" x="0" y="0" viewBox="12.833 13.54 69.334 67.88" enable-background="new 0 0 95 95" xml:space="preserve" height="94.68265308648238" width="96.71077002207086" class="icon-icon-0" data-fill-palette-color="accent" id="icon-0"><g fill="#bf9d00" data-fill-palette-color="accent"><path d="M35.784 69.836C35.83 69.836 35.879 69.826 35.927 69.809 36.143 69.828 36.362 69.836 36.583 69.836 40.948 69.836 44.5 66.284 44.5 61.919 44.5 61.016 44.341 60.115 44.027 59.244A8 8 0 0 0 43.365 57.849C43.172 57.099 43.3 56.419 43.747 55.829 44.375 54.999 45.595 54.455 47.001 54.349V80.92A0.5 0.5 0 0 0 48.001 80.92V54.352C49.406 54.457 50.626 55.002 51.253 55.831 51.7 56.421 51.828 57.1 51.635 57.85 51.37 58.29 51.149 58.759 50.973 59.246A7.9 7.9 0 0 0 50.5 61.92C50.5 66.285 54.052 69.837 58.417 69.837 58.633 69.837 58.846 69.828 59.057 69.811A0.5 0.5 0 0 0 59.216 69.837C70.498 69.837 82.167 60.608 82.167 45.163 82.167 30.235 67.342 13.54 47.5 13.54S12.833 30.234 12.833 45.162C12.833 60.605 24.502 69.836 35.784 69.836M48.001 14.552C67.018 14.831 81.167 30.833 81.167 45.162 81.167 59.905 70.118 68.746 59.379 68.835A0.5 0.5 0 0 0 59.133 68.799 7 7 0 0 1 58.417 68.836C54.604 68.836 51.5 65.732 51.5 61.919 51.5 61.132 51.641 60.346 51.914 59.582 52.073 59.139 52.279 58.71 52.523 58.311A0.6 0.6 0 0 0 52.58 58.184C52.883 57.108 52.699 56.084 52.051 55.229 51.229 54.143 49.738 53.463 48.001 53.352zM47.001 14.552V53.352C45.265 53.463 43.772 54.143 42.949 55.229 42.301 56.084 42.117 57.108 42.42 58.184A0.5 0.5 0 0 0 42.476 58.311C42.721 58.71 42.927 59.139 43.086 59.582 43.36 60.346 43.5 61.132 43.5 61.919A6.926 6.926 0 0 1 35.867 68.799 0.43 0.43 0 0 0 35.648 68.836C24.901 68.762 13.833 59.918 13.833 45.162 13.833 30.833 27.984 14.83 47.001 14.552" fill="#000000" data-fill-palette-color="accent"></path></g></svg></g></svg></g></svg></g><defs></defs></svg><rect width="395.52" height="73.65959960266355" fill="none" stroke="none" visibility="hidden"></rect></g></svg></g></svg>